HIERARCHY
ROOT Hips
{
	OFFSET 0.000000 0.000000 0.000000 
	CHANNELS 6 Xposition Yposition Zposition Zrotation Yrotation Xrotation
	JOINT LeftUpLeg
	{
		OFFSET 1.363060 -1.794630 0.839290 
		CHANNELS 3 Zrotation Yrotation Xrotation
		JOINT LeftLeg
		{
			OFFSET 2.448110 -6.726130 0.000000 
			CHANNELS 3 Zrotation Yrotation Xrotation
			JOINT LeftFoot
			{
				OFFSET 2.562200 -7.039590 0.000000 
				CHANNELS 3 Zrotation Yrotation Xrotation
				JOINT LeftToeBase
				{
					OFFSET 0.157640 -0.433110 2.322550 
					CHANNELS 3 Zrotation Yrotation Xrotation
					End Site
					{
						OFFSET 0.000000 0.000000 0.000000 
					}
				}
			}
		}
	}
	JOINT RightUpLeg
	{
		OFFSET -1.305520 -1.794630 0.839290 
		CHANNELS 3 Zrotation Yrotation Xrotation
		JOINT RightLeg
		{
			OFFSET -2.542530 -6.985550 0.000000 
			CHANNELS 3 Zrotation Yrotation Xrotation
			JOINT RightFoot
			{
				OFFSET -2.568260 -7.056230 0.000000 
				CHANNELS 3 Zrotation Yrotation Xrotation
				JOINT RightToeBase
				{
					OFFSET -0.164730 -0.452590 2.363150 
					CHANNELS 3 Zrotation Yrotation Xrotation
					End Site
					{
						OFFSET 0.000000 0.000000 0.000000 
					}
				}
			}
		}
	}
	JOINT Spine
	{
		OFFSET 0.028270 2.035590 -0.193380 
		CHANNELS 3 Zrotation Yrotation Xrotation
		JOINT Spine1
		{
			OFFSET 0.056720 2.048850 -0.042750 
			CHANNELS 3 Zrotation Yrotation Xrotation
			JOINT Neck1
			{
				OFFSET -0.054170 1.746240 0.172020 
				CHANNELS 3 Zrotation Yrotation Xrotation
				JOINT Head
				{
					OFFSET 0.104070 1.761360 -0.123970 
					CHANNELS 3 Zrotation Yrotation Xrotation
					End Site
					{
						OFFSET 0.000000 0.000000 0.000000 
					}
				}
			}
			JOINT LeftArm
			{
				OFFSET 3.362410 1.200890 -0.311210 
				CHANNELS 3 Zrotation Yrotation Xrotation
				JOINT LeftForeArm
				{
					OFFSET 4.983000 -0.000000 -0.000000 
					CHANNELS 3 Zrotation Yrotation Xrotation
					JOINT LeftHand
					{
						OFFSET 3.483560 -0.000000 -0.000000 
						CHANNELS 3 Zrotation Yrotation Xrotation
						JOINT LeftHandIndex1
						{
							OFFSET 0.715260 -0.000000 -0.000000 
							CHANNELS 3 Zrotation Yrotation Xrotation
							End Site
							{
								OFFSET 0.000000 0.000000 0.000000 
							}
						}
					}
				}
			}
			JOINT RightArm
			{
				OFFSET -3.136600 1.374050 -0.404650 
				CHANNELS 3 Zrotation Yrotation Xrotation
				JOINT RightForeArm
				{
					OFFSET -5.241900 -0.000000 -0.000000 
					CHANNELS 3 Zrotation Yrotation Xrotation
					JOINT RightHand
					{
						OFFSET -3.444170 -0.000000 -0.000000 
						CHANNELS 3 Zrotation Yrotation Xrotation
						JOINT RightHandIndex1
						{
							OFFSET -0.622530 -0.000000 -0.000000 
							CHANNELS 3 Zrotation Yrotation Xrotation
							End Site
							{
								OFFSET 0.000000 0.000000 0.000000 
							}
						}
					}
				}
			}
		}
	}
}
MOTION
Frames: 15
Frame Time: 0.041667
2.704235 15.617260 -4.120109 176.729904 -22.215099 -176.105468 -14.429056 -4.077255 -3.053477 20.876962 19.914472 94.264128 -0.057007 14.125461 2.620637 0.030600 1.128600 3.102800 9.947964 24.718454 -47.967924 -10.697103 -22.802527 67.095106 -0.444608 -2.095316 0.868109 -2.148400 9.168500 -26.323900 0.841678 -7.115783 -2.774166 2.139672 -4.381104 9.440722 6.304731 -3.611239 16.957473 -0.146300 -2.383900 27.490000 -52.714567 31.428358 65.812950 97.446416 -61.180855 -60.833638 1.672366 0.000835 20.562543 -7.125000 0.000000 0.000000 91.788637 -32.955535 15.609430 -70.464542 62.430557 -34.608431 0.482744 -2.239485 1.446732 7.125000 0.000000 0.000000 
2.728150 15.489112 -4.317463 177.729430 -21.598004 -177.040405 -14.054998 -4.591468 -5.132404 21.980300 19.968637 97.433940 -0.196902 15.140924 0.995063 0.029800 1.114500 3.064000 11.371869 25.102227 -47.984807 -11.508858 -23.176984 69.448118 -0.305469 -1.157990 0.089586 -2.263700 9.395100 -27.039100 0.858663 -6.718420 -2.601428 1.828931 -4.188588 9.418662 6.273866 -3.490563 16.525078 -0.148300 -2.240700 26.979800 -56.396810 29.802649 63.345814 93.300253 -61.585078 -57.180908 1.567081 0.173355 19.763822 -7.125000 0.000000 0.000000 92.267337 -28.657417 16.990753 -67.269331 62.154517 -32.376484 0.485475 -2.351355 1.806138 7.125000 0.000000 0.000000 
2.749526 15.368794 -4.512596 178.507814 -21.167202 -177.579149 -13.946249 -5.424903 -7.674346 23.036651 20.028857 100.448348 -0.334264 16.074012 -0.596828 0.024500 1.010400 2.777500 12.475028 25.289930 -48.109580 -12.244439 -23.478509 71.541007 -0.186696 -0.313955 -0.949622 -2.376400 9.609700 -27.721900 0.869519 -6.410095 -2.455649 1.496788 -4.033309 9.502355 6.219866 -3.422887 16.141453 -0.201900 -2.111900 26.505300 -59.667283 27.821457 61.264642 89.073278 -61.867253 -53.572019 1.463571 0.318647 18.875643 -7.125000 0.000000 0.000000 92.612584 -24.322597 18.564916 -64.151549 61.736153 -30.211207 0.496074 -2.433275 2.285218 7.125000 0.000000 0.000000 
2.769420 15.253662 -4.707623 179.043203 -20.958419 -177.707960 -14.097634 -6.611771 -10.689304 24.037500 20.108330 103.281097 -0.463034 16.897644 -2.062456 0.017700 0.858000 2.358100 13.218735 25.260935 -48.425686 -12.926227 -23.728676 73.453767 -0.098441 0.390030 -2.214911 -2.481200 9.803700 -28.343400 0.872590 -6.200368 -2.358636 1.175999 -3.914655 9.602565 6.168422 -3.430480 15.823858 -0.275900 -2.018300 26.107100 -62.493771 25.647136 59.625706 84.937515 -61.999444 -50.137747 1.375808 0.420435 18.163211 -7.125000 0.000000 0.000000 92.846227 -20.118971 20.204606 -61.360721 61.225640 -28.246135 0.525701 -2.467280 2.881513 7.125000 0.000000 0.000000 
2.788573 15.142128 -4.902120 179.368370 -20.937226 -177.506690 -14.437151 -8.111027 -14.084467 24.966498 20.210688 105.884098 -0.579328 17.595391 -3.366340 0.010700 0.668400 1.836800 13.661909 25.075114 -48.906229 -13.566417 -23.940279 75.230812 -0.049695 0.912043 -3.676185 -2.576800 9.976200 -28.899600 0.870665 -6.063997 -2.312494 0.915922 -3.825590 9.658369 6.150850 -3.524882 15.576028 -0.331100 -1.972000 25.794400 -64.920849 23.408162 58.417946 81.101338 -61.981205 -47.015731 1.314220 0.474823 17.849503 -7.125000 0.000000 0.000000 92.952670 -16.213711 22.045845 -59.088180 60.728091 -26.642899 0.528928 -2.490960 3.864261 7.125000 0.000000 0.000000 
2.806245 15.033239 -5.095242 179.571580 -21.045240 -177.116283 -14.835555 -9.834055 -17.698106 25.802239 20.331918 108.198451 -0.681699 18.171862 -4.496375 0.004500 0.435200 1.195800 13.959979 24.798761 -49.447924 -14.170711 -24.118782 76.895562 -0.041709 1.265638 -5.285571 -2.659800 10.122800 -29.375200 0.868794 -5.964514 -2.312063 0.736975 -3.751983 9.619162 6.165208 -3.692889 15.373544 -0.359300 -1.969900 25.578400 -67.019563 21.185855 57.605219 77.736960 -61.842363 -44.308325 1.282256 0.486919 18.062364 -7.125000 0.000000 0.000000 92.911152 -12.684824 24.005621 -57.585759 60.358229 -25.559008 0.516701 -2.497659 4.988599 7.125000 0.000000 0.000000 
2.821272 14.927207 -5.286247 179.762268 -21.207014 -176.672837 -15.158030 -11.687029 -21.385731 26.526143 20.467451 110.173251 -0.772051 18.656096 -5.533737 0.001000 0.200700 0.551300 14.276582 24.522268 -49.956756 -14.741434 -24.270074 78.462011 -0.073414 1.452154 -6.947732 -2.733500 10.250600 -29.792000 0.869470 -5.853790 -2.348187 0.628643 -3.669227 9.442352 6.215941 -3.934199 15.198358 -0.345500 -2.014400 25.434300 -68.827067 19.035872 57.187861 75.002227 -61.635814 -42.114489 1.275330 0.468101 18.784992 -7.125000 0.000000 0.000000 92.702175 -9.594459 26.062473 -56.956494 60.202219 -25.071960 0.476454 -2.500903 6.222717 7.125000 0.000000 0.000000 
2.832595 14.823080 -5.474184 179.976850 -21.326941 -176.278477 -15.381313 -13.544139 -24.993224 27.123772 20.612411 111.773982 -0.854019 19.098071 -6.574020 0.000100 -0.057400 -0.157600 14.675850 24.343966 -50.372459 -15.289963 -24.401839 79.965746 -0.140704 1.456576 -8.575045 -2.792600 10.351500 -30.122800 0.862439 -5.671528 -2.409750 0.548802 -3.543586 9.100881 6.295438 -4.266493 15.024541 -0.301600 -2.103800 25.331800 -70.326670 16.996676 57.196422 73.004409 -61.418930 -40.502874 1.287760 0.431690 19.826479 -7.125000 0.000000 0.000000 92.347621 -6.962417 28.098605 -57.256920 60.300322 -25.211971 0.419837 -2.502384 7.455362 7.125000 0.000000 0.000000 
2.841272 14.719693 -5.658205 -179.801434 -21.347473 -176.011513 -15.535157 -15.340475 -28.405037 27.584534 20.767569 112.976461 -0.929178 19.532136 -7.649175 0.002700 -0.335900 -0.923100 15.178109 24.314451 -50.643866 -15.820783 -24.516771 81.420080 -0.238223 1.235667 -10.083243 -2.827400 10.410200 -30.315600 0.840854 -5.391678 -2.478599 0.484627 -3.367960 8.625810 6.401057 -4.688211 14.842406 -0.240100 -2.227100 25.268400 -71.529672 15.080857 57.591050 71.812946 -61.244342 -39.519869 1.314374 0.390812 20.983378 -7.125000 0.000000 0.000000 91.847460 -4.683191 29.999297 -58.411411 60.608660 -25.914258 0.369997 -2.494401 8.480645 7.125000 0.000000 0.000000 
2.848044 14.614296 -5.837570 -179.574395 -21.187216 -175.857703 -15.607340 -16.976694 -31.629136 27.921593 20.929720 113.822770 -1.000651 19.997951 -8.813138 0.009800 -0.638000 -1.753200 15.762295 24.495791 -50.834725 -16.354314 -24.626439 82.881721 -0.359464 0.760329 -11.462318 -2.834900 10.422900 -30.357300 0.796789 -4.989891 -2.546516 0.400097 -3.128473 8.050538 6.536536 -5.200171 14.644946 -0.162000 -2.378800 25.229700 -72.438441 13.302570 58.325482 71.420454 -61.139390 -39.158447 1.350064 0.355870 22.006921 -7.125000 0.000000 0.000000 91.226333 -2.659716 31.681642 -60.210672 61.029615 -27.033870 0.328868 -2.472682 9.385254 7.125000 0.000000 0.000000 
2.853335 14.526572 -6.015348 -179.284190 -20.846271 -175.821797 -15.555968 -18.399072 -34.583981 28.096159 21.112430 114.202285 -1.071836 20.528289 -9.999208 0.021300 -0.941300 -2.587400 16.569834 24.878249 -50.788960 -16.844718 -24.718846 84.228833 -0.502999 0.005320 -12.793720 -2.815500 10.390300 -30.250000 0.733505 -4.488117 -2.604700 0.254146 -2.833827 7.431015 6.702772 -5.783848 14.437372 -0.073800 -2.545100 25.199900 -73.082820 11.678415 59.298898 71.788320 -61.110271 -39.392921 1.390235 0.332228 22.760273 -7.125000 0.000000 0.000000 90.514005 -0.779765 33.111506 -62.466619 61.472052 -28.441007 0.306242 -2.430997 10.237102 7.125000 0.000000 0.000000 
2.857780 14.424878 -6.189634 -178.906184 -20.346700 -175.868044 -15.247938 -19.599628 -37.472551 28.196890 21.294204 114.372356 -1.145332 21.126407 -11.255694 0.036000 -1.225400 -3.369200 17.520170 25.459384 -50.718525 -17.345226 -24.812470 85.602902 -0.659726 -0.964922 -14.121571 -2.773000 10.318100 -30.013200 0.657523 -3.929701 -2.648674 0.026137 -2.505666 6.832884 6.886163 -6.391880 14.224883 0.015400 -2.708200 25.192400 -73.535611 10.200564 60.360966 72.797732 -61.136867 -40.138573 1.430773 0.321108 23.254206 -7.125000 0.000000 0.000000 89.759528 1.090942 34.205025 -64.873859 61.836472 -29.913160 0.298416 -2.340009 10.978229 7.125000 0.000000 0.000000 
2.860637 14.326677 -6.364132 -178.508273 -19.723232 -175.925601 -14.800666 -20.580209 -40.248643 28.187814 21.491401 114.230719 -1.234050 21.852485 -12.478396 0.052100 -1.473500 -4.052800 18.585016 26.173147 -50.497037 -17.804874 -24.891104 86.861620 -0.828801 -2.080684 -15.559047 -2.722400 10.231500 -29.729800 0.570571 -3.363147 -2.676492 -0.266747 -2.173323 6.316859 7.087674 -6.971763 14.008687 0.120600 -2.856300 25.182600 -73.860475 8.864419 61.400644 74.294341 -61.189718 -41.284494 1.469042 0.321364 23.492776 -7.125000 0.000000 0.000000 88.983133 2.982654 35.181121 -67.189008 62.103676 -31.355375 0.271358 -2.254319 11.978458 7.125000 0.000000 0.000000 
2.861801 14.232921 -6.540322 -178.146232 -19.011044 -175.922709 -14.273766 -21.348177 -42.950846 28.076091 21.704455 113.800855 -1.346096 22.720275 -13.644515 0.067400 -1.675000 -4.608300 19.671093 26.978619 -50.138886 -18.213657 -24.953361 87.972932 -1.010782 -3.266196 -17.175064 -2.676000 10.151100 -29.467600 0.475099 -2.822829 -2.692179 -0.603735 -1.855784 5.918252 7.281228 -7.481259 13.784270 0.220900 -2.975400 25.154600 -74.117026 7.653650 62.319792 76.100345 -61.238129 -42.698222 1.502434 0.327856 23.607763 -7.125000 0.000000 0.000000 88.229611 4.900858 36.062088 -69.353640 62.281979 -32.739907 0.237898 -2.188545 12.983233 7.125000 0.000000 0.000000 
2.860425 14.146889 -6.720428 -177.884824 -18.318476 -175.821561 -13.771750 -22.036196 -45.553674 27.851313 21.942239 113.055912 -1.490360 23.729952 -14.684102 0.079700 -1.821400 -5.012400 20.704377 27.743515 -49.612602 -18.549840 -24.991812 88.875044 -1.204620 -4.475286 -18.960285 -2.645700 10.098100 -29.295000 0.374367 -2.360718 -2.698276 -0.961078 -1.580664 5.656783 7.449843 -7.902697 13.549126 0.302400 -3.061200 25.086900 -74.348225 6.528465 63.073084 77.995710 -61.260006 -44.209882 1.531139 0.335580 23.673965 -7.125000 0.000000 0.000000 87.546238 6.823503 36.824451 -71.290255 62.382839 -34.013488 0.202892 -2.146135 13.907351 7.125000 0.000000 0.000000 
